<?xml version="1.0" ?><svg data-name="Layer 3" id="Layer_3" viewBox="0 0 48 48" xmlns="http://www.w3.org/2000/svg"><defs><style>.cls-1{fill:#dbd0d1;}.cls-2{fill:#86888d;}.cls-3{fill:#9c9495;}.cls-4{fill:#6d6f6a;}.cls-5{fill:#b6acb8;}.cls-6{fill:#52526b;opacity:0.46;}</style></defs><path class="cls-1" d="M43.54,26.04a4.33936,4.33936,0,0,1-.88,2.32,3.06848,3.06848,0,0,1-.95.75,18.5481,18.5481,0,0,1-8.4,10.79c-.37.22-.74.42-1.12.61-.19.09-.38.19-.57.27-.39.18-.78.34-1.18.49s-.8.29-1.22.41a19.07489,19.07489,0,0,1-1.87994.45,17.43447,17.43447,0,0,1-3.34.31,18.44866,18.44866,0,0,1-7.04-1.39,2.98631,2.98631,0,0,1-2.04.35,5.28083,5.28083,0,0,1-2.47-1.3c-.09-.08-.19-.16-.28-.25l-.21-.21q-.195-.225-.39-.48c-.05-.09-.11-.19-.16-.29a2.47935,2.47935,0,0,1-.17-1.6c0-.01-.01-.01-.03-.02-.08-.09-.16-.16-.24005-.25-.28-.27-.54-.55-.8-.84l-.08-.09A18.37989,18.37989,0,0,1,10.66,11.28a3.43014,3.43014,0,0,1,.64-2.22,7.44972,7.44972,0,0,1,2.45-1.99,2.62758,2.62758,0,0,1,1.67-.47,2.548,2.548,0,0,1,1.13.55A18.58974,18.58974,0,0,1,20,6.01a17.71,17.71,0,0,1,4-.45,18.02451,18.02451,0,0,1,6.61,1.25A18.64812,18.64812,0,0,1,41.15,17.28c.07.18.15.37.21.56.13.37.26.75.37,1.14.05.19.1.38.15.58a4.75072,4.75072,0,0,1,.14.63c.06.26.11.52.15.79a2.82305,2.82305,0,0,1,.06.31c.05.34.09.68.12,1.03A4.85592,4.85592,0,0,1,43.54,26.04Z"/><path class="cls-2" d="M35.88,32.01c1.34-.09-.24,1.93-.65,2.24a2.45021,2.45021,0,0,1-1.24.52,1.48716,1.48716,0,0,1-1.24-.42C33.51,33.57,34.69,32.08,35.88,32.01Z"/><path class="cls-2" d="M30.43,26.87a1.736,1.736,0,0,1-.15,1.02A2.52908,2.52908,0,0,1,29.15,29a3.57633,3.57633,0,0,1-3.07.3,2.64684,2.64684,0,0,1-1.65-2.05,2.06672,2.06672,0,0,1-.02-.43c.22-3.22,5.64-2.41,6.02.04Z"/><path class="cls-2" d="M12.88,25.59a2.62,2.62,0,0,1,0,5.24,2.96625,2.96625,0,0,1-.42-.03,2.38449,2.38449,0,0,0-1.63-4.13h-.06A2.57667,2.57667,0,0,1,12.88,25.59Z"/><path class="cls-3" d="M14.38,17.04a1.84092,1.84092,0,0,1-.33,3.19,2.78457,2.78457,0,0,1-1.25.15,2.14074,2.14074,0,0,1-.62-.13A.81841.81841,0,0,1,11.8,20a1.229,1.229,0,0,1-.22-1.07,2.85584,2.85584,0,0,1,1.12-1.68A1.52618,1.52618,0,0,1,14.38,17.04Z"/><path class="cls-4" d="M36.26,14.62a2.14894,2.14894,0,0,1-1.03,2.58,2.4069,2.4069,0,0,1-1.84-.11,3.39711,3.39711,0,0,1-1.77-1.67,2.42272,2.42272,0,0,1,.19-2.36C33.21,11.11,35.74,12.9,36.26,14.62Z"/><path class="cls-2" d="M34.502,17.8374a3.32893,3.32893,0,0,1-1.31054-.28857A3.85866,3.85866,0,0,1,31.16406,15.624a2.92284,2.92284,0,0,1,.24024-2.85644,2.32187,2.32187,0,0,1,2.35156-1.02149,4.13243,4.13243,0,0,1,2.98242,2.7295,2.65117,2.65117,0,0,1-1.3164,3.18652A2.396,2.396,0,0,1,34.502,17.8374Zm-1.15722-5.126a1.35872,1.35872,0,0,0-1.12891.64013l-.00293.00342a1.93348,1.93348,0,0,0-.13476,1.86377,2.90407,2.90407,0,0,0,1.51074,1.4126,1.9235,1.9235,0,0,0,1.45019.10693,1.65345,1.65345,0,0,0,.74121-1.9751,3.14651,3.14651,0,0,0-2.18847-2.03076A1.4898,1.4898,0,0,0,33.34473,12.71143Zm-1.53516.34863h0Z"/><path class="cls-5" d="M33.80273,35.28076a1.94021,1.94021,0,0,1-1.417-.58887.49874.49874,0,0,1,.00586-.69043c.11328-.11621.23535-.248.36524-.38818.79492-.85742,1.88379-2.03125,3.09375-2.10254a.877.877,0,0,1,1.00293.53369c.33789.90479-1.05567,2.40332-1.32129,2.604a2.92763,2.92763,0,0,1-1.499.61963A2.0374,2.0374,0,0,1,33.80273,35.28076Zm-.26855-1.03515a1.12526,1.12526,0,0,0,.40137.02734,1.95445,1.95445,0,0,0,.99511-.42285,4.342,4.342,0,0,0,.94825-1.33887C35.0918,32.5835,34.2002,33.52832,33.53418,34.24561Z"/><path class="cls-5" d="M29.78027,35.52a.5.5,0,0,1-.37988-.8252,2.94443,2.94443,0,0,1,2.44336-.81494l.40527.01905c.18653.01025.37207.021.56055.021a.5.5,0,0,1,0,1c-.207,0-.41113-.01123-.61621-.02246l-.37891-.01758a2.03638,2.03638,0,0,0-1.65429.46533A.498.498,0,0,1,29.78027,35.52Z"/><path class="cls-5" d="M33.33984,31.33008a.49871.49871,0,0,1-.31543-.11182c-.165-.13379-.33007-.26806-.49414-.41211a.50031.50031,0,0,1,.66016-.75195c.1543.13525.30957.26172.46387.38769a.49957.49957,0,0,1-.31446.88819Z"/><path class="cls-5" d="M36.03027,20.08008a.49983.49983,0,0,1-.40039-.2002,1.61738,1.61738,0,0,1-.16211-1.64306.5.5,0,1,1,.9043.42675.622.622,0,0,0,.05859.6167.50034.50034,0,0,1-.40039.79981Z"/><path class="cls-5" d="M31.2998,12.3501a.49587.49587,0,0,1-.24414-.064A2.17889,2.17889,0,0,1,29.9502,10.459a.50041.50041,0,0,1,.49121-.50878.53286.53286,0,0,1,.50879.49121,1.18036,1.18036,0,0,0,.59375.97265.49969.49969,0,0,1-.24415.936Z"/><path class="cls-2" d="M13.11035,20.8916c-.11133,0-.22656-.00439-.34668-.01318a2.59741,2.59741,0,0,1-.77734-.16748,1.27057,1.27057,0,0,1-.57031-.39014,1.679,1.679,0,0,1-.32715-1.48389,3.31985,3.31985,0,0,1,1.3164-1.99072,2.01481,2.01481,0,0,1,2.21387-.2456,2.07131,2.07131,0,0,1,1.043,1.99511,2.42652,2.42652,0,0,1-1.42383,2.09766A2.94465,2.94465,0,0,1,13.11035,20.8916Zm.62012-3.51953a1.27309,1.27309,0,0,0-.73242.27979l-.00586.0039a2.349,2.349,0,0,0-.919,1.35742.76921.76921,0,0,0,.09278.64649.345.345,0,0,0,.17187.11621,1.77552,1.77552,0,0,0,.50977.10644,2.26446,2.26446,0,0,0,1.01172-.11474,1.4119,1.4119,0,0,0,.80468-1.23242,1.09925,1.09925,0,0,0-.52734-1.05811A.83722.83722,0,0,0,13.73047,17.37207ZM12.7002,17.25h0Z"/><path class="cls-5" d="M16.28027,16.68018a.49986.49986,0,0,1-.17578-.96778,1.28781,1.28781,0,0,0,.57422-.43017.49981.49981,0,1,1,.80274.5957,2.26482,2.26482,0,0,1-1.0254.77A.49261.49261,0,0,1,16.28027,16.68018Z"/><path class="cls-2" d="M12.7002,17.75a.5.5,0,0,1-.5-.48926,1.36912,1.36912,0,0,0-.36426-.89844.49984.49984,0,1,1,.72851-.68457,2.3857,2.3857,0,0,1,.63575,1.56153.50045.50045,0,0,1-.48926.51074Z"/><path class="cls-2" d="M11.38965,22.49023a.5.5,0,0,1-.3457-.86132,2.12035,2.12035,0,0,0,.63671-1.40186.49955.49955,0,1,1,.99805.0459,3.14137,3.14137,0,0,1-.94336,2.07861A.49819.49819,0,0,1,11.38965,22.49023Z"/><path class="cls-2" d="M27.25,42.14014a.49221.49221,0,0,1-.24512-.06446,17.2123,17.2123,0,0,1-6.49121-6.5625.49968.49968,0,1,1,.873-.48632,16.20629,16.20629,0,0,0,6.1084,6.17773.49994.49994,0,0,1-.24512.93555Z"/><path class="cls-2" d="M19.74023,33a.50055.50055,0,0,1-.47656-.34912c-.13379-.42139-.25683-.853-.36035-1.28418a.50014.50014,0,0,1,.97266-.2334c.09765.40869.21484.8169.34082,1.21582A.49984.49984,0,0,1,19.74023,33Z"/><path class="cls-2" d="M33.86133,15.99023a.47274.47274,0,0,1-.06934-.00488,1.18137,1.18137,0,0,1-.91211-.68847,1.1683,1.1683,0,0,1,.13672-1.14307.50051.50051,0,0,1,.80664.59277.16442.16442,0,0,0-.02344.15674.17858.17858,0,0,0,.12891.0918.49992.49992,0,0,1-.06738.99511Z"/><path class="cls-5" d="M30.42969,27.36523a.49557.49557,0,0,1-.5-.49511.51409.51409,0,0,1,.29883-.46778,34.10765,34.10765,0,0,1,3.67382-1.37011.49979.49979,0,1,1,.29493.95507,33.36463,33.36463,0,0,0-3.51368,1.30713A.48877.48877,0,0,1,30.42969,27.36523Z"/><path class="cls-5" d="M27.25781,30.02148a3.63146,3.63146,0,0,1-1.36523-.2583,3.1367,3.1367,0,0,1-1.959-2.44775,2.68374,2.68374,0,0,1-.02246-.53027,2.77413,2.77413,0,0,1,2.9375-2.57911c1.751-.06738,3.81348.88868,4.0752,2.57715a.32015.32015,0,0,1,.00488.05225,2.46289,2.46289,0,0,1-.06543.92041,2.60231,2.60231,0,0,1-.13574.35791,2.99931,2.99931,0,0,1-1.33887,1.32568A4.292,4.292,0,0,1,27.25781,30.02148Zm-.21875-4.81933c-.0498,0-.09863.001-.14746.00293A1.84822,1.84822,0,0,0,24.90918,26.854a1.6175,1.6175,0,0,0,.01562.32715A2.15673,2.15673,0,0,0,26.26367,28.835a3.055,3.055,0,0,0,2.63672-.26807,2.09258,2.09258,0,0,0,.92578-.88574,1.26628,1.26628,0,0,0,.10742-.74853l-.00195-.022C29.749,25.876,28.30078,25.20215,27.03906,25.20215Z"/><path class="cls-5" d="M29.40039,24.1001a.50064.50064,0,0,1-.42383-.76612c.27246-.4331.54981-.86132.82813-1.291l.36523-.56348a.49951.49951,0,1,1,.83985.541l-.36524.56592c-.27637.42627-.55078.85058-.82031,1.27978A.50135.50135,0,0,1,29.40039,24.1001Z"/><path class="cls-5" d="M25.5,32.04a.50019.50019,0,0,1-.1377-.981.1132.1132,0,0,0,.06543-.07861.50024.50024,0,0,1,.98438.17871,1.10662,1.10662,0,0,1-.77441.86182A.52017.52017,0,0,1,25.5,32.04Z"/><path class="cls-5" d="M23.68359,26.88574c-.23828-.10791-.42773-.19385-.61718-.28857a.50006.50006,0,1,1,.44726-.89453c.17774.08886.35547.16943.53223.24951l-.15625.478Z"/><path class="cls-5" d="M40.15039,24.79a.49834.49834,0,0,1-.25879-.07178l-1.43066-.87012a.50034.50034,0,0,1,.51758-.85644l1.43066.87012a.50034.50034,0,0,1-.25879.92822Z"/><path class="cls-5" d="M39.17578,28.66553a1.815,1.815,0,0,1-.47656-.063.49985.49985,0,0,1,.26172-.96484.95244.95244,0,0,0,.89062-.25635.5.5,0,1,1,.7168.69726A1.95683,1.95683,0,0,1,39.17578,28.66553Z"/><path class="cls-5" d="M16.05957,38.02979a.4995.4995,0,0,1-.31348-.11036,5.36182,5.36182,0,0,0-1.71-.92382.5.5,0,1,1,.3086-.95118,6.3396,6.3396,0,0,1,2.02832,1.09571.50018.50018,0,0,1-.31348.88965Z"/><path class="cls-5" d="M12.87988,31.33008a3.47237,3.47237,0,0,1-.49121-.03516.50029.50029,0,0,1-.27051-.85986,1.88469,1.88469,0,0,0-1.28808-3.26514.54724.54724,0,0,1-.47461-.271.49816.49816,0,0,1,.00683-.519,3.11363,3.11363,0,1,1,2.51758,4.9502Zm-1.042-4.96924a2.877,2.877,0,0,1,1.625,3.8877,2.12087,2.12087,0,1,0-1.625-3.8877Z"/><path class="cls-2" d="M21.16992,12.12012a.5.5,0,0,1-.22363-.94727,6.07066,6.07066,0,0,0,1.36816-.9331.49984.49984,0,1,1,.67188.74023,7.05736,7.05736,0,0,1-1.59278,1.0874A.504.504,0,0,1,21.16992,12.12012Z"/><path class="cls-6" d="M43.54,26.04a4.33936,4.33936,0,0,1-.88,2.32,3.06848,3.06848,0,0,1-.95.75,18.5481,18.5481,0,0,1-8.4,10.79c-.37.22-.74.42-1.12.61-.19.09-.38.19-.57.27-.39.18-.78.34-1.18.49s-.8.29-1.22.41a19.07489,19.07489,0,0,1-1.87994.45,17.43447,17.43447,0,0,1-3.34.31,18.44866,18.44866,0,0,1-7.04-1.39,2.98631,2.98631,0,0,1-2.04.35,5.28083,5.28083,0,0,1-2.47-1.3c-.09-.08-.19-.16-.28-.25l-.21-.21q-.195-.225-.39-.48c-.05-.09-.11-.19-.16-.29a2.47935,2.47935,0,0,1-.17-1.6c0-.01-.01-.01-.03-.02-.08-.09-.16-.16-.24005-.25-.28-.27-.54-.55-.8-.84l-.08-.09.66-.28a1.29917,1.29917,0,0,0,.35-.21L11.34,35.4l.27.12a17.40627,17.40627,0,0,0,10.05,1.13A17.50888,17.50888,0,0,0,35.31,24.12l.06-.24.23-.09a1.90859,1.90859,0,0,0,.78-.57,3.29556,3.29556,0,0,0,.66-1.78,3.797,3.797,0,0,0-1.02-3.04l-.13-.13-.02-.19a17.32017,17.32017,0,0,0-3.92-9.64L30.61,6.81A18.64812,18.64812,0,0,1,41.15,17.28c.07.18.15.37.21.56.14.37.26.75.37,1.14.05.19.1.38.15.58a4.75072,4.75072,0,0,1,.14.63c.06.26.11.52.15.79a2.82305,2.82305,0,0,1,.06.31c.05.34.09.68.12,1.03A4.85592,4.85592,0,0,1,43.54,26.04Z"/></svg>