<svg version="1.1" id="Layer_1" xmlns="http://www.w3.org/2000/svg" xmlns:xlink="http://www.w3.org/1999/xlink" x="0px" y="0px"
	 viewBox="0 0 2376 2278" enable-background="new 0 0 2376 2278" xml:space="preserve">
<path fill="#35495E" opacity="1.000000" stroke="none"
	d="
M1.999999,388.000000
	C2.000000,388.000000 2.000000,387.000000 2.550027,386.406067
	C3.460453,385.719971 3.820853,385.627808 5.099680,385.653992
	C10.679825,385.801910 15.341540,385.857239 20.003258,385.857391
	C165.525848,385.861969 311.048462,385.843109 456.570984,385.939301
	C461.446838,385.942535 466.321869,387.099365 471.531738,388.412567
	C489.153717,424.688446 506.423676,460.278778 523.734253,495.849365
	C537.990845,525.144531 552.274963,554.426331 566.583679,583.696106
	C588.778625,629.097595 611.014893,674.478882 633.213989,719.878357
	C646.795166,747.653198 660.331299,775.450073 673.902649,803.229675
	C696.233582,848.940063 718.584900,894.640625 740.911560,940.353149
	C754.187683,967.535400 767.421448,994.738464 780.695068,1021.922058
	C802.577393,1066.735962 824.472412,1111.543823 846.369995,1156.350342
	C860.237549,1184.725830 874.110168,1213.098999 887.997803,1241.464722
	C903.935425,1274.017700 919.863098,1306.575806 935.850464,1339.104492
	C947.293335,1362.386597 958.905457,1385.585571 970.303284,1408.889648
	C989.724915,1448.599121 1009.037476,1488.361694 1028.542725,1528.786377
	C1030.273560,1533.133301 1031.714966,1536.865601 1033.462280,1540.448486
	C1061.051880,1597.021240 1088.674683,1653.578003 1116.302368,1710.132202
	C1144.661011,1768.182373 1173.014648,1826.235229 1201.409302,1884.267822
	C1211.801758,1905.508057 1222.304688,1926.694214 1232.761108,1947.903076
	C1234.261108,1950.945557 1235.783813,1953.826294 1239.951172,1953.786377
	C1244.182861,1953.745728 1245.482056,1950.701050 1246.874634,1947.637085
	C1256.932739,1925.508179 1267.000854,1903.383911 1277.036133,1881.244629
	C1304.804565,1819.983398 1332.525513,1758.700684 1360.327759,1697.454834
	C1385.102173,1642.878784 1410.013184,1588.364624 1434.734619,1533.764526
	C1439.379395,1523.505981 1443.415405,1512.971802 1448.046143,1501.871094
	C1449.012939,1500.022217 1449.760986,1498.909912 1450.305542,1497.705688
	C1469.178711,1455.968506 1487.969238,1414.193726 1506.907471,1372.486206
	C1525.154785,1332.300171 1543.589844,1292.199341 1561.873413,1252.029907
	C1584.013306,1203.388184 1606.083374,1154.714600 1628.178467,1106.052490
	C1652.054443,1053.468384 1675.924194,1000.881226 1699.797485,948.295715
	C1721.889893,899.632568 1743.980835,850.968872 1766.077026,802.307434
	C1789.952759,749.727356 1813.840210,697.152649 1837.710571,644.570068
	C1859.800293,595.909973 1881.901245,547.255005 1903.945557,498.574280
	C1920.924194,461.079834 1937.822510,423.549072 1955.646240,386.003052
	C1959.530518,385.906799 1962.525146,385.785370 1965.519653,385.785156
	C2100.019043,385.775696 2234.518555,385.775452 2369.018066,385.786102
	C2372.011963,385.786316 2375.006104,385.925598 2378.000000,386.000000
	C2378.000000,387.500000 2378.000000,389.000000 2377.291992,391.415009
	C2375.228760,395.716034 2373.997559,399.157928 2372.499268,402.479309
	C2359.121094,432.135162 2345.658691,461.753082 2332.293701,491.414886
	C2315.109375,529.552551 2298.041992,567.742798 2280.834229,605.869690
	C2258.026367,656.405762 2235.092041,706.884705 2212.287354,757.422119
	C2195.085449,795.542664 2178.056641,833.741516 2160.851318,871.860535
	C2136.946045,924.823364 2112.897705,977.721741 2089.004395,1030.689941
	C2070.034668,1072.743286 2051.270508,1114.889404 2032.297119,1156.941162
	C2011.266113,1203.553345 1990.041870,1250.078247 1969.011597,1296.690674
	C1950.038452,1338.743530 1931.280518,1380.893433 1912.306641,1422.945923
	C1886.363892,1480.444214 1860.269165,1537.874146 1834.312378,1595.366211
	C1817.099731,1633.490601 1800.066406,1671.695801 1782.858887,1709.822510
	C1760.050659,1760.358398 1737.120361,1810.839233 1714.299683,1861.369629
	C1696.812622,1900.090332 1679.425049,1938.855835 1661.973145,1977.592407
	C1641.242310,2023.606934 1620.507324,2069.619385 1599.741699,2115.618164
	C1583.352417,2151.922607 1566.860474,2188.180420 1550.520874,2224.507324
	C1542.225464,2242.949951 1534.166016,2261.499023 1526.000000,2280.000000
	C1321.957153,2280.000000 1117.914307,2280.000000 912.738586,2279.326172
	C902.800293,2260.385254 894.004333,2242.113770 885.187195,2223.852539
	C871.313232,2195.118164 857.373962,2166.415527 843.554443,2137.654785
	C820.385498,2089.436523 797.309692,2041.173340 774.153625,1992.948853
	C761.634338,1966.876343 748.975342,1940.870850 736.476074,1914.788940
	C713.640930,1867.139526 690.901672,1819.444214 668.072327,1771.792114
	C659.169556,1753.209106 650.063660,1734.723389 641.169128,1716.136475
	C622.520630,1677.167114 603.995728,1638.138672 585.333313,1599.176025
	C572.697998,1572.796265 559.860657,1546.513428 547.210083,1520.140869
	C527.953979,1479.997681 508.802032,1439.804688 489.563843,1399.652954
	C481.234100,1382.267944 472.748260,1364.957520 464.422638,1347.570435
	C441.888428,1300.510620 419.436493,1253.411377 396.883484,1206.360596
	C383.809692,1179.085815 370.535583,1151.906860 357.472626,1124.626831
	C335.514526,1078.770630 313.693542,1032.848755 291.735504,986.992554
	C278.385742,959.113342 264.845306,931.325439 251.464478,903.461060
	C228.451172,855.537659 205.508759,807.580139 182.509003,759.650208
	C173.880005,741.667969 165.130600,723.743469 156.511749,705.756409
	C133.678131,658.103882 110.903778,610.423035 88.068184,562.771484
	C79.019379,543.889099 69.812569,525.082336 60.780632,506.191925
	C43.005836,469.015686 25.341135,431.786682 7.485812,394.649292
	C6.276919,392.134888 3.856799,390.202881 1.999999,388.000000
z"/>
<path fill="#41B883" opacity="1.000000" stroke="none"
	d="
M1447.732422,1502.564697
	C1443.415405,1512.971802 1439.379395,1523.505981 1434.734619,1533.764526
	C1410.013184,1588.364624 1385.102173,1642.878784 1360.327759,1697.454834
	C1332.525513,1758.700684 1304.804565,1819.983398 1277.036133,1881.244629
	C1267.000854,1903.383911 1256.932739,1925.508179 1246.874634,1947.637085
	C1245.482056,1950.701050 1244.182861,1953.745728 1239.951172,1953.786377
	C1235.783813,1953.826294 1234.261108,1950.945557 1232.761108,1947.903076
	C1222.304688,1926.694214 1211.801758,1905.508057 1201.409302,1884.267822
	C1173.014648,1826.235229 1144.661011,1768.182373 1116.302368,1710.132202
	C1088.674683,1653.578003 1061.051880,1597.021240 1033.462280,1540.448486
	C1031.714966,1536.865601 1030.273560,1533.133301 1028.985962,1528.072266
	C1029.413940,1522.351929 1029.661011,1518.030029 1029.661377,1513.708130
	C1029.680298,1306.778198 1029.677734,1099.848145 1029.677734,892.918213
	C1029.677734,728.640442 1029.677734,564.362732 1029.677734,400.084961
	C1029.677734,395.852386 1029.677734,391.619843 1029.677734,386.932953
	C1025.527100,386.681702 1022.610107,386.350952 1019.693054,386.350555
	C840.087158,386.326019 660.481262,386.321259 480.875427,386.386383
	C477.649200,386.387573 474.423340,387.255157 471.197296,387.718475
	C466.321869,387.099365 461.446838,385.942535 456.570984,385.939301
	C311.048462,385.843109 165.525848,385.861969 20.003258,385.857391
	C15.341540,385.857239 10.679825,385.801910 5.137316,384.756653
	C4.331208,381.411316 4.471030,379.081665 4.471240,376.752014
	C4.482208,254.822083 4.484777,132.892151 4.461584,10.962227
	C4.461016,7.974789 4.160578,4.987408 4.000000,2.000000
	C795.333313,2.000000 1586.666626,2.000000 2378.000000,2.000000
	C2378.000000,129.539536 2378.000000,256.832458 2378.000000,385.062683
	C2375.006104,385.925598 2372.011963,385.786316 2369.018066,385.786102
	C2234.518555,385.775452 2100.019043,385.775696 1965.519653,385.785156
	C1962.525146,385.785370 1959.530518,385.906799 1954.667236,385.861572
	C1791.518188,385.725708 1630.238159,385.696594 1468.958008,385.703735
	C1466.401001,385.703857 1463.843994,386.148560 1460.850220,386.426331
	C1460.650635,388.554352 1460.395996,390.152985 1460.365601,391.755859
	C1459.671631,428.339142 1458.890625,464.921265 1458.354736,501.506958
	C1457.584595,554.080994 1456.985229,606.657654 1456.333130,659.233398
	C1455.652100,714.149048 1455.014893,769.065247 1454.321899,823.980774
	C1453.683594,874.557129 1452.938599,925.132202 1452.345825,975.709106
	C1451.616333,1037.953491 1451.003662,1100.199463 1450.322632,1162.444458
	C1450.140381,1179.090210 1449.854858,1195.734863 1449.682861,1212.380737
	C1449.215210,1257.646973 1448.752686,1302.913330 1448.347412,1348.180176
	C1448.078979,1378.156372 1447.912354,1408.133545 1447.702148,1438.110229
	C1447.692749,1439.442993 1447.730591,1440.776611 1447.700317,1442.108765
	C1447.270996,1461.046997 1446.807861,1479.984619 1446.458984,1498.924316
	C1446.436890,1500.129639 1447.287598,1501.350830 1447.732422,1502.564697
z"/>
<path fill="none" opacity="1.000000" stroke="none"
	d="
M1.999999,388.937317
	C3.856799,390.202881 6.276919,392.134888 7.485812,394.649292
	C25.341135,431.786682 43.005836,469.015686 60.780632,506.191925
	C69.812569,525.082336 79.019379,543.889099 88.068184,562.771484
	C110.903778,610.423035 133.678131,658.103882 156.511749,705.756409
	C165.130600,723.743469 173.880005,741.667969 182.509003,759.650208
	C205.508759,807.580139 228.451172,855.537659 251.464478,903.461060
	C264.845306,931.325439 278.385742,959.113342 291.735504,986.992554
	C313.693542,1032.848755 335.514526,1078.770630 357.472626,1124.626831
	C370.535583,1151.906860 383.809692,1179.085815 396.883484,1206.360596
	C419.436493,1253.411377 441.888428,1300.510620 464.422638,1347.570435
	C472.748260,1364.957520 481.234100,1382.267944 489.563843,1399.652954
	C508.802032,1439.804688 527.953979,1479.997681 547.210083,1520.140869
	C559.860657,1546.513428 572.697998,1572.796265 585.333313,1599.176025
	C603.995728,1638.138672 622.520630,1677.167114 641.169128,1716.136475
	C650.063660,1734.723389 659.169556,1753.209106 668.072327,1771.792114
	C690.901672,1819.444214 713.640930,1867.139526 736.476074,1914.788940
	C748.975342,1940.870850 761.634338,1966.876343 774.153625,1992.948853
	C797.309692,2041.173340 820.385498,2089.436523 843.554443,2137.654785
	C857.373962,2166.415527 871.313232,2195.118164 885.187195,2223.852539
	C894.004333,2242.113770 902.800293,2260.385254 911.802856,2279.326172
	C608.761353,2280.000000 305.522736,2280.000000 2.000000,2280.000000
	C2.000000,1649.958252 2.000000,1019.916443 1.999999,388.937317
z"/>
<path fill="none" opacity="1.000000" stroke="none"
	d="
M1526.937256,2280.000000
	C1534.166016,2261.499023 1542.225464,2242.949951 1550.520874,2224.507324
	C1566.860474,2188.180420 1583.352417,2151.922607 1599.741699,2115.618164
	C1620.507324,2069.619385 1641.242310,2023.606934 1661.973145,1977.592407
	C1679.425049,1938.855835 1696.812622,1900.090332 1714.299683,1861.369629
	C1737.120361,1810.839233 1760.050659,1760.358398 1782.858887,1709.822510
	C1800.066406,1671.695801 1817.099731,1633.490601 1834.312378,1595.366211
	C1860.269165,1537.874146 1886.363892,1480.444214 1912.306641,1422.945923
	C1931.280518,1380.893433 1950.038452,1338.743530 1969.011597,1296.690674
	C1990.041870,1250.078247 2011.266113,1203.553345 2032.297119,1156.941162
	C2051.270508,1114.889404 2070.034668,1072.743286 2089.004395,1030.689941
	C2112.897705,977.721741 2136.946045,924.823364 2160.851318,871.860535
	C2178.056641,833.741516 2195.085449,795.542664 2212.287354,757.422119
	C2235.092041,706.884705 2258.026367,656.405762 2280.834229,605.869690
	C2298.041992,567.742798 2315.109375,529.552551 2332.293701,491.414886
	C2345.658691,461.753082 2359.121094,432.135162 2372.499268,402.479309
	C2373.997559,399.157928 2375.228760,395.716034 2377.291992,392.165009
	C2378.000000,1021.132385 2378.000000,1650.264771 2378.000000,2280.000000
	C2094.625244,2280.000000 1811.249878,2280.000000 1526.937256,2280.000000
z"/>
<path fill="#C0E7D6" opacity="1.000000" stroke="none"
	d="
M3.000000,2.000000
	C4.160578,4.987408 4.461016,7.974789 4.461584,10.962227
	C4.484777,132.892151 4.482208,254.822083 4.471240,376.752014
	C4.471030,379.081665 4.331208,381.411316 4.218888,384.638306
	C3.820853,385.627808 3.460453,385.719971 2.550027,385.906067
	C2.000000,258.000000 2.000000,130.000000 3.000000,2.000000
z"/>
<path fill="none" opacity="1.000000" stroke="none"
	d="
M471.531738,388.412567
	C474.423340,387.255157 477.649200,386.387573 480.875427,386.386383
	C660.481262,386.321259 840.087158,386.326019 1019.693054,386.350555
	C1022.610107,386.350952 1025.527100,386.681702 1029.677734,386.932953
	C1029.677734,391.619843 1029.677734,395.852386 1029.677734,400.084961
	C1029.677734,564.362732 1029.677734,728.640442 1029.677734,892.918213
	C1029.677734,1099.848145 1029.680298,1306.778198 1029.661377,1513.708130
	C1029.661011,1518.030029 1029.413940,1522.351929 1028.838867,1527.387939
	C1009.037476,1488.361694 989.724915,1448.599121 970.303284,1408.889648
	C958.905457,1385.585571 947.293335,1362.386597 935.850464,1339.104492
	C919.863098,1306.575806 903.935425,1274.017700 887.997803,1241.464722
	C874.110168,1213.098999 860.237549,1184.725830 846.369995,1156.350342
	C824.472412,1111.543823 802.577393,1066.735962 780.695068,1021.922058
	C767.421448,994.738464 754.187683,967.535400 740.911560,940.353149
	C718.584900,894.640625 696.233582,848.940063 673.902649,803.229675
	C660.331299,775.450073 646.795166,747.653198 633.213989,719.878357
	C611.014893,674.478882 588.778625,629.097595 566.583679,583.696106
	C552.274963,554.426331 537.990845,525.144531 523.734253,495.849365
	C506.423676,460.278778 489.153717,424.688446 471.531738,388.412567
z"/>
<path fill="none" opacity="1.000000" stroke="none"
	d="
M1448.046021,1501.871094
	C1447.287598,1501.350830 1446.436890,1500.129639 1446.458984,1498.924316
	C1446.807861,1479.984619 1447.270996,1461.046997 1447.700317,1442.108765
	C1447.730591,1440.776611 1447.692749,1439.442993 1447.702148,1438.110229
	C1447.912354,1408.133545 1448.078979,1378.156372 1448.347412,1348.180176
	C1448.752686,1302.913330 1449.215210,1257.646973 1449.682861,1212.380737
	C1449.854858,1195.734863 1450.140381,1179.090210 1450.322632,1162.444458
	C1451.003662,1100.199463 1451.616333,1037.953491 1452.345825,975.709106
	C1452.938599,925.132202 1453.683594,874.557129 1454.321899,823.980774
	C1455.014893,769.065247 1455.652100,714.149048 1456.333130,659.233398
	C1456.985229,606.657654 1457.584595,554.080994 1458.354736,501.506958
	C1458.890625,464.921265 1459.671631,428.339142 1460.365601,391.755859
	C1460.395996,390.152985 1460.650635,388.554352 1460.850220,386.426331
	C1463.843994,386.148560 1466.401001,385.703857 1468.958008,385.703735
	C1630.238159,385.696594 1791.518188,385.725708 1953.777466,385.892944
	C1937.822510,423.549072 1920.924194,461.079834 1903.945557,498.574280
	C1881.901245,547.255005 1859.800293,595.909973 1837.710571,644.570068
	C1813.840210,697.152649 1789.952759,749.727356 1766.077026,802.307434
	C1743.980835,850.968872 1721.889893,899.632568 1699.797485,948.295715
	C1675.924194,1000.881226 1652.054443,1053.468384 1628.178467,1106.052490
	C1606.083374,1154.714600 1584.013306,1203.388184 1561.873413,1252.029907
	C1543.589844,1292.199341 1525.154785,1332.300171 1506.907471,1372.486206
	C1487.969238,1414.193726 1469.178711,1455.968506 1450.305542,1497.705688
	C1449.760986,1498.909912 1449.012939,1500.022217 1448.046021,1501.871094
z"/>
</svg>
